<?xml version="1.0" encoding="UTF-8" standalone="no"?>
<!DOCTYPE svg PUBLIC "-//W3C//DTD SVG 1.1//EN" "http://www.w3.org/Graphics/SVG/1.1/DTD/svg11.dtd">
<svg width="100%" height="100%" viewBox="-0 -0 965.2266 965.2266" version="1.1" xmlns="http://www.w3.org/2000/svg" xmlns:xlink="http://www.w3.org/1999/xlink" xml:space="preserve" xmlns:serif="http://www.serif.com/" style="fill-rule:evenodd;clip-rule:evenodd;stroke-linejoin:round;stroke-miterlimit:2;">
    <g transform="matrix(1.85928,0,0,1.85928,82.6115,68.705)">
        <path d="M422.794,222.618C422.794,107.932 329.825,14.961 215.14,14.961C100.451,14.961 7.482,107.932 7.482,222.618C7.482,337.303 100.451,430.274 215.14,430.274C329.825,430.275 422.794,337.303 422.794,222.618Z" style="fill:rgb(20,124,193);fill-rule:nonzero;"/>
        <g transform="matrix(0.302282,-0.280197,1.46795,1.58365,-557.992,-365.3)">
            <path d="M159.137,526.93L161.27,415.09L180,399.27L180,394.227C190.494,389.793 204.859,385.604 223.131,381.841C314.054,363.118 467.51,362.008 565.601,379.363C623.433,389.595 649.191,403.977 641.958,417.895L641.958,450.706C651.726,452.082 660.55,453.458 668.206,454.813C696.844,459.88 709.876,464.026 713,467.359L713,519.339C552.76,542.9 333.619,545.68 159.137,526.93Z" style="fill:rgb(29,97,158);"/>
        </g>
    </g>
</svg>
