<?xml version="1.0" encoding="UTF-8" standalone="no"?>
<!DOCTYPE svg PUBLIC "-//W3C//DTD SVG 1.1//EN" "http://www.w3.org/Graphics/SVG/1.1/DTD/svg11.dtd">
<svg width="100%" height="100%" viewBox="0 0 800 800" version="1.1" xmlns="http://www.w3.org/2000/svg" xmlns:xlink="http://www.w3.org/1999/xlink" xml:space="preserve" xmlns:serif="http://www.serif.com/" style="fill-rule:evenodd;clip-rule:evenodd;stroke-linejoin:round;stroke-miterlimit:2;">
    <g transform="matrix(1,0,0,1,-6.72638,-9.10992)">
        <g transform="matrix(7.02268e-17,-1.14689,1.22829,7.52113e-17,-1.98755,805.571)">
            <path d="M620.111,522.986C619.835,523.068 619.553,523.132 619.266,523.177L615.12,523.831C614.639,523.907 614.15,523.93 613.663,523.9L608.942,523.605C608.696,523.59 608.451,523.561 608.209,523.518C605.866,523.108 603.442,522.384 600.938,521.296C594.372,518.445 586.133,510.334 571.398,504.737C567.495,503.254 564.275,500.536 562.302,497.06C559.487,492.099 557.951,485.016 558.746,475.906C559.84,463.353 565.559,444.596 571.509,422.046C582.065,382.034 593.62,328.432 571.096,277.852C556.665,245.444 527.985,214.63 476.644,189.263C426.217,215.499 399.059,247.389 386.174,280.698C377.981,301.878 375.512,323.516 376.095,344.333C376.132,345.628 376.007,346.922 375.724,348.19C370.079,373.493 362.699,399.836 353.85,426.564C349.939,439.158 344.186,449.742 337.115,459.041C316.688,485.904 283.981,500.893 254.147,525.727C237.979,539.185 238.838,554.749 239.871,569.115C240.939,583.971 242.236,598.193 238.136,610.576C234.903,620.342 224.951,640.478 219.697,645.765C216.301,649.184 211.533,651.126 206.539,651.126C205.821,651.126 205.108,651.086 204.406,651.007C202.526,651.619 200.532,651.94 198.5,651.94C193.506,651.94 188.738,649.998 185.342,646.58C176.478,637.66 169.8,617.715 165.138,594.604C161.712,577.621 158.765,558.827 154.546,543.429C152.334,535.356 150.046,528.337 146.57,523.846C145.536,522.509 144.59,521.235 143.729,520.023C126.404,506.876 108.536,496.406 93.262,484.162C74.908,469.451 60.016,452.377 52.256,427.406C18.355,325 6.856,228.417 29.439,171.296C29.61,170.862 29.801,170.435 30.01,170.016C37.629,154.764 44.817,148.031 50.436,145.219C50.629,145.122 50.826,145.036 51.029,144.958L54.898,143.485C55.322,143.324 55.763,143.207 56.214,143.136L60.361,142.481C60.842,142.405 61.331,142.382 61.817,142.413L63.409,142.512C63.685,142.43 63.967,142.367 64.253,142.321L68.4,141.667C68.881,141.591 69.37,141.568 69.856,141.599L74.578,141.893C74.824,141.909 75.068,141.938 75.31,141.98C77.654,142.39 80.078,143.115 82.582,144.202C89.148,147.053 97.387,155.164 112.121,160.761C116.025,162.244 119.245,164.962 121.218,168.439C124.024,173.384 125.557,180.459 124.739,189.57C123.617,202.085 117.855,220.81 111.781,243.342C100.995,283.348 88.944,336.992 110.252,387.706C123.834,420.033 151.273,450.835 200.827,476.25C256.693,448.263 285.287,413.722 297.877,377.885C304.093,360.189 306.445,342.262 306.502,324.846C306.505,323.749 306.624,322.654 306.857,321.579C312.613,294.974 320.322,267.171 329.67,238.934C333.581,226.34 339.334,215.757 346.405,206.457C364.989,182.019 393.58,167.249 421.149,146.294C422.011,145.08 422.958,143.804 423.993,142.467C427.468,137.975 429.757,130.957 431.969,122.883C436.188,107.486 439.135,88.692 442.56,71.708C447.223,48.597 453.901,28.653 462.765,19.733C466.161,16.315 470.929,14.372 475.923,14.372C476.64,14.372 477.351,14.413 478.055,14.491L478.058,14.491C479.937,13.88 481.931,13.558 483.962,13.558C488.956,13.558 493.724,15.501 497.12,18.919C502.374,24.206 512.325,44.342 515.559,54.108C519.659,66.491 518.362,80.713 517.294,95.57C516.261,109.935 515.402,125.499 531.57,138.957C550.142,154.416 570.045,165.695 587.035,178.803C606.863,194.1 623.053,211.673 631.264,238.092C665.165,340.499 676.664,437.082 654.081,494.203C653.91,494.636 653.719,495.064 653.509,495.483C645.891,510.735 638.703,517.467 633.084,520.28C632.891,520.376 632.693,520.463 632.491,520.54L628.622,522.013C628.198,522.174 627.757,522.292 627.305,522.363L623.159,523.017C622.678,523.093 622.189,523.116 621.702,523.086L620.111,522.986Z" style="fill:rgb(90,83,83);"/>
        </g>
        <g transform="matrix(7.02268e-17,-1.14689,1.22829,7.52113e-17,-1.98755,796.571)">
            <path d="M620.111,522.986C619.835,523.068 619.553,523.132 619.266,523.177L615.12,523.831C614.639,523.907 614.15,523.93 613.663,523.9L608.942,523.605C608.696,523.59 608.451,523.561 608.209,523.518C605.866,523.108 603.442,522.384 600.938,521.296C594.372,518.445 586.133,510.334 571.398,504.737C567.495,503.254 564.275,500.536 562.302,497.06C559.487,492.099 557.951,485.016 558.746,475.906C559.84,463.353 565.559,444.596 571.509,422.046C582.065,382.034 593.62,328.432 571.096,277.852C556.665,245.444 527.985,214.63 476.644,189.263C426.217,215.499 399.059,247.389 386.174,280.698C377.981,301.878 375.512,323.516 376.095,344.333C376.132,345.628 376.007,346.922 375.724,348.19C370.079,373.493 362.699,399.836 353.85,426.564C349.939,439.158 344.186,449.742 337.115,459.041C316.688,485.904 283.981,500.893 254.147,525.727C237.979,539.185 238.838,554.749 239.871,569.115C240.939,583.971 242.236,598.193 238.136,610.576C234.903,620.342 224.951,640.478 219.697,645.765C216.301,649.184 211.533,651.126 206.539,651.126C205.821,651.126 205.108,651.086 204.406,651.007C202.526,651.619 200.532,651.94 198.5,651.94C193.506,651.94 188.738,649.998 185.342,646.58C176.478,637.66 169.8,617.715 165.138,594.604C161.712,577.621 158.765,558.827 154.546,543.429C152.334,535.356 150.046,528.337 146.57,523.846C145.536,522.509 144.59,521.235 143.729,520.023C126.404,506.876 108.536,496.406 93.262,484.162C74.908,469.451 60.016,452.377 52.256,427.406C18.355,325 6.856,228.417 29.439,171.296C29.61,170.862 29.801,170.435 30.01,170.016C37.629,154.764 44.817,148.031 50.436,145.219C50.629,145.122 50.826,145.036 51.029,144.958L54.898,143.485C55.322,143.324 55.763,143.207 56.214,143.136L60.361,142.481C60.842,142.405 61.331,142.382 61.817,142.413L63.409,142.512C63.685,142.43 63.967,142.367 64.253,142.321L68.4,141.667C68.881,141.591 69.37,141.568 69.856,141.599L74.578,141.893C74.824,141.909 75.068,141.938 75.31,141.98C77.654,142.39 80.078,143.115 82.582,144.202C89.148,147.053 97.387,155.164 112.121,160.761C116.025,162.244 119.245,164.962 121.218,168.439C124.024,173.384 125.557,180.459 124.739,189.57C123.617,202.085 117.855,220.81 111.781,243.342C100.995,283.348 88.944,336.992 110.252,387.706C123.834,420.033 151.273,450.835 200.827,476.25C256.693,448.263 285.287,413.722 297.877,377.885C304.093,360.189 306.445,342.262 306.502,324.846C306.505,323.749 306.624,322.654 306.857,321.579C312.613,294.974 320.322,267.171 329.67,238.934C333.581,226.34 339.334,215.757 346.405,206.457C364.989,182.019 393.58,167.249 421.149,146.294C422.011,145.08 422.958,143.804 423.993,142.467C427.468,137.975 429.757,130.957 431.969,122.883C436.188,107.486 439.135,88.692 442.56,71.708C447.223,48.597 453.901,28.653 462.765,19.733C466.161,16.315 470.929,14.372 475.923,14.372C476.64,14.372 477.351,14.413 478.055,14.491L478.058,14.491C479.937,13.88 481.931,13.558 483.962,13.558C488.956,13.558 493.724,15.501 497.12,18.919C502.374,24.206 512.325,44.342 515.559,54.108C519.659,66.491 518.362,80.713 517.294,95.57C516.261,109.935 515.402,125.499 531.57,138.957C550.142,154.416 570.045,165.695 587.035,178.803C606.863,194.1 623.053,211.673 631.264,238.092C665.165,340.499 676.664,437.082 654.081,494.203C653.91,494.636 653.719,495.064 653.509,495.483C645.891,510.735 638.703,517.467 633.084,520.28C632.891,520.376 632.693,520.463 632.491,520.54L628.622,522.013C628.198,522.174 627.757,522.292 627.305,522.363L623.159,523.017C622.678,523.093 622.189,523.116 621.702,523.086L620.111,522.986Z" style="fill:rgb(90,83,83);"/>
        </g>
        <g transform="matrix(1,0,0,1,22.7993,-28.0874)">
            <g transform="matrix(7.02268e-17,-1.14689,1.22829,7.52113e-17,-24.7868,824.658)">
                <path d="M477.377,183.041L468.775,183.34C414.627,210.738 385.841,244.433 372.264,279.532C363.796,301.423 361.213,323.784 361.816,345.3C361.84,346.144 361.759,346.988 361.574,347.815C355.964,372.962 348.627,399.142 339.828,425.714C336.128,437.646 330.684,447.673 323.986,456.481C303.819,483.002 271.409,497.672 241.955,522.19C223.968,537.162 224.455,554.338 225.604,570.319C226.618,584.417 228.024,597.918 224.133,609.669C221.113,618.791 211.99,637.677 207.082,642.615C204.867,644.845 201.757,646.112 198.5,646.112C195.243,646.112 192.133,644.845 189.918,642.615C181.569,634.213 175.664,615.296 171.272,593.525C167.821,576.42 164.843,557.493 160.593,541.985C158.152,533.076 155.465,525.389 151.63,520.432C150.438,518.893 149.37,517.44 148.419,516.073C130.904,502.693 112.783,492.128 97.328,479.74C79.854,465.734 65.615,449.517 58.236,425.733C24.812,324.79 13.035,229.618 35.295,173.314C35.407,173.031 35.531,172.753 35.667,172.479C42.395,159.011 48.423,152.839 53.385,150.356L57.255,148.883L61.401,148.228L66.122,148.523C67.989,148.849 69.916,149.435 71.911,150.301C78.534,153.177 86.866,161.328 101.73,166.974C104.276,167.941 106.376,169.714 107.663,171.982C110.039,176.169 111.172,182.183 110.48,189.898C109.377,202.197 103.658,220.589 97.688,242.733C86.637,283.723 74.57,338.688 96.402,390.648C110.566,424.361 139.199,456.585 191.353,482.973L199.954,483.271C260.162,454.059 290.528,417.506 303.808,379.702C310.235,361.405 312.686,342.871 312.744,324.864C312.746,324.148 312.824,323.434 312.976,322.733C318.695,296.295 326.359,268.666 335.653,240.599C339.352,228.666 344.797,218.639 351.495,209.831C369.933,185.584 398.506,171.144 425.84,150.241C426.793,148.873 427.861,147.42 429.053,145.88C432.888,140.924 435.575,133.237 438.016,124.328C442.266,108.82 445.244,89.892 448.695,72.787C453.086,51.017 458.991,32.099 467.341,23.697C469.556,21.468 472.666,20.201 475.923,20.201C479.18,20.201 482.29,21.468 484.505,23.697C489.412,28.636 498.536,47.522 501.556,56.644C505.447,68.394 504.04,81.896 503.027,95.993C501.878,111.974 501.391,129.151 519.377,144.122C538.011,159.633 557.973,170.958 575.02,184.11C593.919,198.69 609.429,215.387 617.245,240.579C650.668,341.522 662.446,436.695 640.186,492.998C640.074,493.281 639.95,493.56 639.813,493.833C633.085,507.302 627.057,513.473 622.096,515.957L618.226,517.43L614.08,518.084L609.358,517.789C607.492,517.463 605.565,516.877 603.57,516.011C596.946,513.135 588.614,504.984 573.751,499.338C571.205,498.371 569.104,496.598 567.818,494.331C565.432,490.126 564.294,484.1 564.967,476.379C566.043,464.038 571.721,445.61 577.57,423.44C588.392,382.421 599.951,327.469 576.86,275.614C561.772,241.73 531.715,209.405 477.377,183.041Z" style="fill:rgb(125,112,113);"/>
            </g>
            <g transform="matrix(7.02268e-17,-1.14689,1.22829,7.52113e-17,-25.7868,815.438)">
                <path d="M477.377,183.041L468.775,183.34C414.627,210.738 385.841,244.433 372.264,279.532C363.796,301.423 361.213,323.784 361.816,345.3C361.84,346.144 361.759,346.988 361.574,347.815C355.964,372.962 348.627,399.142 339.828,425.714C336.128,437.646 330.684,447.673 323.986,456.481C303.819,483.002 271.409,497.672 241.955,522.19C223.968,537.162 224.455,554.338 225.604,570.319C226.618,584.417 228.024,597.918 224.133,609.669C221.113,618.791 211.99,637.677 207.082,642.615C204.867,644.845 201.757,646.112 198.5,646.112C195.243,646.112 192.133,644.845 189.918,642.615C181.569,634.213 175.664,615.296 171.272,593.525C167.821,576.42 164.843,557.493 160.593,541.985C158.152,533.076 155.465,525.389 151.63,520.432C150.438,518.893 149.37,517.44 148.419,516.073C130.904,502.693 112.783,492.128 97.328,479.74C79.854,465.734 65.615,449.517 58.236,425.733C24.812,324.79 13.035,229.618 35.295,173.314C35.407,173.031 35.531,172.753 35.667,172.479C42.395,159.011 48.423,152.839 53.385,150.356L57.255,148.883L61.401,148.228L66.122,148.523C67.989,148.849 69.916,149.435 71.911,150.301C78.534,153.177 86.866,161.328 101.73,166.974C104.276,167.941 106.376,169.714 107.663,171.982C110.039,176.169 111.172,182.183 110.48,189.898C109.377,202.197 103.658,220.589 97.688,242.733C86.637,283.723 74.57,338.688 96.402,390.648C110.566,424.361 139.199,456.585 191.353,482.973L199.954,483.271C260.162,454.059 290.528,417.506 303.808,379.702C310.235,361.405 312.686,342.871 312.744,324.864C312.746,324.148 312.824,323.434 312.976,322.733C318.695,296.295 326.359,268.666 335.653,240.599C339.352,228.666 344.797,218.639 351.495,209.831C369.933,185.584 398.506,171.144 425.84,150.241C426.793,148.873 427.861,147.42 429.053,145.88C432.888,140.924 435.575,133.237 438.016,124.328C442.266,108.82 445.244,89.892 448.695,72.787C453.086,51.017 458.991,32.099 467.341,23.697C469.556,21.468 472.666,20.201 475.923,20.201C479.18,20.201 482.29,21.468 484.505,23.697C489.412,28.636 498.536,47.522 501.556,56.644C505.447,68.394 504.04,81.896 503.027,95.993C501.878,111.974 501.391,129.151 519.377,144.122C538.011,159.633 557.973,170.958 575.02,184.11C593.919,198.69 609.429,215.387 617.245,240.579C650.668,341.522 662.446,436.695 640.186,492.998C640.074,493.281 639.95,493.56 639.813,493.833C633.085,507.302 627.057,513.473 622.096,515.957L618.226,517.43L614.08,518.084L609.358,517.789C607.492,517.463 605.565,516.877 603.57,516.011C596.946,513.135 588.614,504.984 573.751,499.338C571.205,498.371 569.104,496.598 567.818,494.331C565.432,490.126 564.294,484.1 564.967,476.379C566.043,464.038 571.721,445.61 577.57,423.44C588.392,382.421 599.951,327.469 576.86,275.614C561.772,241.73 531.715,209.405 477.377,183.041Z" style="fill:rgb(160,147,142);"/>
            </g>
            <g transform="matrix(7.02268e-17,-1.14689,1.22829,7.52113e-17,-38.2396,807.438)">
                <path d="M361.041,216.16C379.227,192.244 407.807,178.412 434.724,157.57C435.795,155.953 437.063,154.194 438.542,152.282C457.335,127.996 457.457,49.716 475.923,31.132C480.181,35.417 487.751,51.958 490.371,59.872C499.116,86.285 475.923,122.596 511.587,152.282C549.087,183.497 591.877,197.938 606.028,243.712C638.556,341.912 650.858,434.441 629.203,489.212C612.33,522.992 608.992,500.924 578.162,489.212C560.586,458.241 690.052,272.553 481.073,172.521C480.045,171.441 465.61,172.521 465.61,172.521C406.697,201.742 375.83,238.136 361.253,275.818C352.269,299.044 349.473,322.759 350.113,345.586C344.568,370.441 337.311,396.317 328.605,422.6C325.301,433.288 320.435,442.268 314.44,450.152C294.76,476.033 262.908,490.104 234.164,514.03C198.5,543.717 221.693,580.028 212.948,606.44C210.328,614.355 202.758,630.895 198.5,635.18C180.034,616.597 179.912,538.316 161.119,514.03C159.64,512.118 158.372,510.359 157.301,508.743C121.511,481.029 82.78,465.711 69.453,422.6C36.925,324.4 24.623,231.872 46.278,177.1C63.151,143.321 66.489,165.389 97.318,177.1C114.767,207.846 -14.488,393.263 188.187,493.792C188.187,493.792 202.622,494.872 203.65,493.792C268.497,462.751 300.756,423.463 314.932,383.109C321.755,363.685 324.389,344.014 324.451,324.897C330.103,298.772 337.682,271.469 346.875,243.712C350.18,233.024 355.045,224.044 361.041,216.16Z" style="fill:rgb(207,198,184);"/>
            </g>
        </g>
    </g>
</svg>
