<svg viewBox="330.1161 294.5818 400.121 400.121" xmlns="http://www.w3.org/2000/svg" width="100%" height="100%" version="1.1" xml:space="preserve" style="fill-rule:evenodd;clip-rule:evenodd;stroke-linejoin:round;stroke-miterlimit:2;"><g transform="matrix(1.1559,-0.41585,-0.415779,-1.15571,315.399,738.46)"><g><g><g transform="matrix(1,5.55112e-17,2.22045e-16,1,0.0797867,-0.112545)">
                    <g transform="matrix(-2.06063,0.858052,-0.857906,-2.06097,357.781,257.185)">
                        <path d="M62.64,121.41C62.08,122.4 62.2,123.7 64.31,124.76C66.43,125.82 66.86,125.88 67.31,125.91C68.1,125.95 69.91,125.34 71.1,124.68C72.05,124.15 73.22,123.36 72.38,121.82C71.6,120.38 67.36,122.08 67.36,122.08C67.36,122.08 63.61,119.7 62.64,121.41Z" style="fill:#E3F0F8;fill-rule:nonzero;" />
                    </g>
                    <g transform="matrix(-1.9037,1.1656,-1.1654,-1.90401,385.289,227.874)">
                        <path d="M62.37,112.38C61.2,113.46 61.97,115.07 64.35,116.61C66.47,117.98 67.66,118.99 68.58,118.99C69.5,118.99 72.97,117.24 73.87,116.74C75.24,115.99 75.68,114.49 74.62,113.43C73.56,112.37 72.06,113.47 71.31,113.87C70.56,114.27 68.84,115.1 68.84,115.1C68.84,115.1 66.59,113.47 65.84,112.94C65.09,112.41 63.52,111.32 62.37,112.38Z" style="fill:#E3F0F8;fill-rule:nonzero;" />
                    </g>
                    <g transform="matrix(-2.06063,0.858052,-0.857906,-2.06097,361.379,272.067)">
                        <path d="M61.23,101.3C60.27,102.74 60.83,104.25 63.12,105.53C65.41,106.81 68.28,107.95 69.2,108.09C70.12,108.23 73.74,105.09 74.44,104.43C75.14,103.77 77.08,101.7 75.85,100.29C74.38,98.61 72.81,99.89 71.4,100.86C70.32,101.6 69.06,102.53 69.06,102.53C69.06,102.53 66.64,101.87 65.23,101.21C63.83,100.55 62.11,99.98 61.23,101.3Z" style="fill:#E3F0F8;fill-rule:nonzero;" />
                    </g>
                    <g transform="matrix(-2.06063,0.858052,-0.857906,-2.06097,361.812,272.269)">
                        <path d="M66.94,89.55C66.94,89.55 69.45,86.95 70.38,86.07C71.31,85.19 72.89,84.31 74.08,85.72C75.27,87.13 74.04,89.25 72.93,90.26C71.82,91.27 69.01,94.58 68.21,94.71C67.41,94.84 61.56,93.78 59.88,92.9C58.89,92.38 57.32,91.4 58.21,89.42C58.94,87.78 60.59,87.97 61.82,88.23C63.05,88.49 66.94,89.55 66.94,89.55Z" style="fill:#E3F0F8;fill-rule:nonzero;" />
                    </g>
                    <g transform="matrix(-2.07313,0.827398,-0.827257,-2.07347,361.709,275.997)">
                        <path d="M60.96,75.41C60.96,75.41 63.08,71.09 63.78,69.55C64.49,68.01 65.37,66.6 67.35,67.3C69.33,68 68.73,69.87 68.06,71.66C67.27,73.78 65.06,79.37 64.09,79.86C62.91,80.45 56.69,80.65 54.53,80.61C53.56,80.59 52.46,79.9 52.5,78.58C52.54,77.26 53.36,76.34 55.5,75.98C56.82,75.76 60.96,75.41 60.96,75.41Z" style="fill:#E3F0F8;fill-rule:nonzero;" />
                    </g>
                    <g transform="matrix(-2.21468,0.278278,-0.278228,-2.21504,338.763,319.577)">
                        <path d="M48.655,62.167C47.324,62.692 45.852,63.251 45.27,63.42C43.6,63.9 43.02,65.58 43.38,66.77C43.74,67.96 45.36,68.58 47.26,68C49.15,67.43 54.88,65.97 55.41,65.14C55.574,64.883 55.771,64.141 55.971,63.192C53.566,62.73 51.124,62.388 48.655,62.167Z" style="fill:#E3F0F8;fill-rule:nonzero;" />
                    </g>
                    <g transform="matrix(0.765986,-0.275619,-0.275572,-0.766112,-38.1726,652.786)">
                        <path d="M462.269,430.775C459.819,425.373 456.768,417.384 455.809,414.645C454.405,410.633 453.135,405.466 458.381,403.42C463.626,401.373 466.668,404.542 468.019,408.313C468.638,410.044 471.64,417.159 473.117,420.642C473.616,421.819 473.941,422.582 473.941,422.582C474.267,422.688 477.61,423.261 481.319,423.842C474.844,425.914 468.515,428.294 462.357,430.97C462.328,430.905 462.298,430.841 462.269,430.775Z" style="fill:#FFFFFF;" />
                    </g>
                    <g transform="matrix(-2.18829,0.44009,-0.440013,-2.18865,352.702,301.676)">
                        <path d="M38.92,51.24C38.92,51.24 39.27,47.23 39.4,46.04C39.53,44.85 39.97,43.26 42.04,43.4C44.11,43.54 43.89,46.22 43.89,47.94C43.89,49.66 43.49,54.15 43.23,54.37C42.97,54.59 40.19,56.75 38.74,57.72C37.29,58.69 34.95,59.34 34.07,58.02C33.19,56.7 34.47,54.64 35.88,53.58C37.29,52.52 38.92,51.24 38.92,51.24Z" style="fill:#FFFFFF;fill-rule:nonzero;" />
                    </g>
                    <g transform="matrix(-2.10608,0.0183681,-0.0172167,-1.97518,337.497,298.694)">
                        <path d="M26.25,37.75C24.21,38.26 24.31,40.39 24.93,42.55C25.55,44.71 25.9,46.47 25.9,46.47C25.9,46.47 24.45,48.72 23.83,49.51C23.21,50.3 21.27,52.64 23.3,54.31C25.33,55.98 27.31,53.03 28.06,52.15C28.79,51.3 31.19,48.1 31.19,47.66C31.19,46.38 29.87,41.67 29.56,40.65C29.25,39.63 28.54,37.18 26.25,37.75Z" style="fill:#FFFFFF;fill-rule:nonzero;" />
                    </g>
                    <g transform="matrix(-1.84012,-0.192043,0.180201,-1.72719,335.798,284.11)">
                        <path d="M11.61,41.12C10.7,41.74 10.24,43.63 11.39,45.26C12.33,46.6 13.02,47.99 13.02,47.99C13.02,47.99 11.79,51.56 11.3,52.71C10.81,53.86 10.24,56.37 12.27,57.16C14.3,57.95 15.71,55.75 16.24,54.12C16.77,52.49 18.18,48.83 18.22,47.73C18.25,47 16.33,43.41 15.49,42.18C14.65,40.95 12.98,40.2 11.61,41.12Z" style="fill:#FFFFFF;fill-rule:nonzero;" />
                    </g>
                    <g transform="matrix(-1.9846,-1.02172,1.02155,-1.98493,307.903,300.377)">
                        <path d="M8.26,53.68C8.49,54.73 7.91,57.69 7.33,60.2C7.16,60.94 6.91,62.6 4.82,62.09C3.01,61.65 3.76,59.36 3.98,58.21C4.11,57.53 4.64,55.35 4.64,55.35C4.64,55.35 3.68,54.83 3.71,53.72C3.75,52.27 4.5,51.78 5.69,51.69C6.88,51.6 8.08,52.89 8.26,53.68Z" style="fill:#E3F0F8;fill-rule:nonzero;" />
                    </g>
                </g>
            </g></g></g></svg>