<?xml version="1.0" encoding="UTF-8" standalone="no"?>
<!DOCTYPE svg PUBLIC "-//W3C//DTD SVG 1.1//EN" "http://www.w3.org/Graphics/SVG/1.1/DTD/svg11.dtd">
<svg width="100%" height="100%" viewBox="-0 -0 965.2266 965.2266" version="1.1" xmlns="http://www.w3.org/2000/svg" xmlns:xlink="http://www.w3.org/1999/xlink" xml:space="preserve" xmlns:serif="http://www.serif.com/" style="fill-rule:evenodd;clip-rule:evenodd;stroke-linejoin:round;stroke-miterlimit:2;">
    <g transform="matrix(1.1559,-0.41585,-0.415779,-1.15571,232.927,660.88)">
        <g transform="matrix(0.765986,-0.275619,-0.275572,-0.766112,-38.1726,652.786)">
            <path d="M695.491,112.885C672.135,112.885 653.499,131.518 653.499,154.877C653.499,178.237 672.138,196.87 695.493,196.87C718.847,196.87 737.485,178.232 737.485,154.877C737.485,131.523 718.847,112.885 695.493,112.885L695.491,112.885Z" style="fill:#89D7ED;fill-rule:nonzero;"/>
        </g>
        <g transform="matrix(0.765986,-0.275619,-0.275572,-0.766112,-38.1726,652.786)">
            <path d="M333.089,113.229C343.244,148.517 415.818,227.364 436.946,270.941C449.343,296.512 422.148,290.651 426.765,310.174C431.383,329.697 432.406,346.44 426.179,360.908C419.951,375.372 403.989,384.455 387.264,384.149C370.537,383.843 388.127,405.554 365.361,393.402C324.607,371.648 237.388,285.6 201.789,266.598C97.488,210.922 98.454,357.744 201.789,402.879C224.916,412.98 253.874,405.807 277.227,409.274C287.368,399.759 300.966,393.893 315.852,393.893C340.883,393.893 362.324,410.465 369.708,433.151C370.239,433.362 370.787,433.582 371.318,433.784C392.756,441.941 335.572,474.12 343.244,507.562C347.082,524.285 338.594,539.953 333.724,558.004C324.331,592.82 390.697,605.966 368.711,618.843C326.703,643.446 248.149,646.436 201.789,663.324C79.138,708.004 134.971,833.365 237.388,808.199C288.391,795.667 328.268,723.77 367.466,688.13C407.88,651.38 382.359,710.479 411.399,708.004C426.702,706.701 442.259,710.749 453.881,721.285C465.499,731.821 472.646,747.57 475.802,767.379C481.62,803.87 541.139,730.854 511.847,852.34C499.823,902.212 574.12,902.777 558.919,852.34C527.279,747.359 540.325,754.262 568.145,762.202C575.444,764.286 617.304,786.314 625.762,759.127C629.673,746.557 645.149,762.202 658.968,759.127C671.604,756.316 666.121,724.129 674.933,739.354C691.346,767.705 710.412,830.135 723.957,852.341C759.514,910.638 804.043,904.426 782.597,852.341C771.576,825.574 714.06,766.857 695.493,721.285C685.093,695.76 727.655,710.945 729.816,692.549C735.046,648.032 782.597,667.886 799.835,652.653C812.955,641.059 768.213,598.217 792.658,608.446C872.288,641.766 893.573,765.915 940.95,730.854C979.295,702.477 961.575,594.442 940.95,586.47C933.789,583.701 921.327,563.771 917.95,582.271C902.769,602.505 878.6,615.668 851.497,615.668C814.661,615.668 782.597,584.715 782.597,539.887C782.597,494.522 835.971,433.784 797.686,415.478C766.114,400.381 697.114,403.054 742.905,371.288C786.955,340.726 905.355,319.016 940.95,264.719C992.669,185.827 957.152,97.859 872.288,142.756C809.683,175.877 805.67,221.037 768.496,264.719C730.056,309.891 695.97,335.694 663.074,336.203C646.631,336.458 630.929,327.881 621.72,313.692C612.509,299.505 597.475,298.602 596.724,275.191C595.333,231.891 626.991,179.085 621.72,154.877C610.593,103.777 573.68,112.566 567.126,154.877C560.674,196.524 579.798,229.214 574.298,264.719C571.298,284.072 561.286,291.293 555.208,303.707C549.13,316.12 540.339,326.52 527.279,329.488C514.216,332.457 501.45,326.399 491.047,316.89C480.646,307.382 470.864,293.691 460.677,275.191C441.28,239.968 413.515,144.402 399.055,113.229C367.379,44.94 324.164,82.212 333.089,113.229Z" style="fill:#89D7ED;fill-rule:nonzero;"/>
        </g>
        <g transform="matrix(0.536813,-0.706714,-0.70066,-0.53239,128.849,586.257)">
            <ellipse cx="139.721" cy="243" rx="49.721" ry="23" style="fill:#E3F0F8;"/>
        </g>
        <g transform="matrix(0.765986,-0.275619,-0.275572,-0.766112,-38.1726,652.786)">
            <path d="M315.852,423.088C300.56,423.088 288.458,435.191 288.458,450.482C288.458,465.774 300.56,477.826 315.849,477.826C331.143,477.826 343.244,465.774 343.244,450.482C343.244,435.191 331.141,423.091 315.85,423.091L315.852,423.088Z" style="fill:#89D7ED;fill-rule:nonzero;"/>
        </g>
        <g transform="matrix(0.765986,-0.275619,-0.275572,-0.766112,-38.1726,652.786)">
            <path d="M851.496,478.754C821.586,478.754 797.686,502.702 797.686,532.613C797.686,562.52 821.586,586.47 851.496,586.47C881.405,586.47 905.355,562.521 905.355,532.61C905.355,502.704 881.405,478.754 851.496,478.754Z" style="fill:#89D7ED;fill-rule:nonzero;"/>
        </g>
        <g transform="matrix(0.765986,-0.275619,-0.275572,-0.766112,-38.1726,652.786)">
            <path d="M237.388,505.22C218.06,505.22 202.716,520.563 202.716,539.887C202.716,559.215 218.06,574.559 237.388,574.559C256.711,574.559 272.054,559.215 272.054,539.887C272.054,520.563 256.71,505.221 237.386,505.221L237.388,505.22Z" style="fill:#89D7ED;fill-rule:nonzero;"/>
        </g>
        <g transform="matrix(0.765986,-0.275619,-0.275572,-0.766112,-38.1726,652.786)">
            <path d="M804.036,744.282C786.224,744.282 772.102,758.401 772.102,776.215C772.102,794.032 786.224,808.199 804.036,808.199C821.849,808.199 835.971,794.027 835.971,776.215C835.971,758.405 821.846,744.284 804.036,744.284L804.036,744.282Z" style="fill:#89D7ED;fill-rule:nonzero;"/>
        </g>
        <g transform="matrix(0.765986,-0.275619,-0.275572,-0.766112,15.7152,564.453)">
            <ellipse cx="124.221" cy="656.5" rx="65.221" ry="54.5" style="fill:#E3F0F8;"/>
        </g>
        <g transform="matrix(5.6887,0.33658,0.0932155,-1.57595,-1256.3,1043.72)">
            <ellipse cx="197.644" cy="678.518" rx="8.202" ry="20.018" style="fill:#89D7ED;"/>
        </g>
        <g transform="matrix(0.995197,0.0222709,0.0233063,-1.04171,-225.791,709.767)">
            <ellipse cx="147.552" cy="630.073" rx="27.448" ry="12.073" style="fill:#E3F0F8;"/>
        </g>
        <g transform="matrix(1,-1.11039e-16,-2.77556e-16,1,-0.0797867,0.112545)">
            <g>
                <g transform="matrix(0.636892,0.647754,-0.647754,0.636892,252.662,-219.254)">
                    <path d="M325.035,80.769C298.996,66 268.897,57.566 236.816,57.566C137.822,57.566 57.562,137.821 57.562,236.82C57.562,292.934 83.352,343.002 123.714,375.869C154.567,400.993 193.923,416.074 236.816,416.074C244.275,416.074 251.627,415.619 258.846,414.734C347.455,403.875 416.07,328.363 416.07,236.82C416.07,192.352 399.844,151.697 373.035,120.367C359.499,104.545 343.262,91.105 325.035,80.769Z" style="fill:#E3F0F8;"/>
                </g>
                <g transform="matrix(0.887376,0.194374,-0.194374,0.887376,85.9739,-171.206)">
                    <path d="M311.944,313.197C363.116,262.021 379.862,190.588 360.671,130.945C330.781,96.006 286.403,73.838 236.816,73.838C146.808,73.838 73.834,146.808 73.834,236.82C73.834,287.843 97.289,333.365 133.989,363.251C192.738,380.3 261.995,363.15 311.944,313.197Z" style="fill:#89D7ED;fill-rule:nonzero;"/>
                </g>
                <g transform="matrix(0.887376,0.194374,-0.194374,0.887376,85.9739,-171.206)">
                    <path d="M360.671,130.945C378.229,151.464 390.795,176.382 396.449,203.827C398.334,187.206 398.179,170.575 395.981,154.351C382.246,127.752 361.649,104.239 334.784,86.706C251.882,32.602 140.808,55.947 86.702,138.852C56.034,185.844 50.267,241.868 66.105,291.451C78.212,329.353 102.928,363.492 138.848,386.934C145.095,391.011 151.501,394.648 158.03,397.852C174.217,399.624 190.766,399.381 207.265,397.127C179.819,392.095 154.781,380.181 133.989,363.251C97.289,333.365 73.834,287.843 73.834,236.82C73.834,146.808 146.808,73.838 236.816,73.838C286.403,73.838 330.781,96.006 360.671,130.945Z" style="fill:#147CC1;fill-rule:nonzero;"/>
                </g>
                <g transform="matrix(-0.56077,0.217239,0.217239,0.56077,338.793,-125.397)">
                    <g transform="matrix(12.5,0,0,12.5,0,0)">
                        <path d="M7.8,8C8.2,9.7 8.9,11.2 9.7,12.7C10.5,14.2 11.4,15.7 12.3,17.1C14.2,19.9 16.2,22.7 18.4,25.3C20.6,27.9 22.9,30.4 25.4,32.7C26.7,33.8 28,34.9 29.4,35.8C30.8,36.8 32.3,37.5 34,38C32.3,37.9 30.6,37.2 29,36.4C27.4,35.6 26,34.6 24.6,33.5C21.9,31.3 19.4,28.8 17.2,26.2C15,23.5 13,20.7 11.3,17.6C10.5,16.2 9.7,14.6 9,13C8.4,11.4 7.9,9.7 7.8,8" style="fill:#1D619E;fill-rule:nonzero;"/>
                    </g>
                    <g transform="matrix(12.5,0,0,12.5,0,0)">
                        <path d="M2,21.5C3.2,24 4.7,26.3 6.5,28.2C8.4,30.1 10.6,31.6 13.1,32.7C15.5,33.8 18.2,34.6 20.7,35.7C22,36.3 23.3,36.9 24.4,37.9C25.5,38.8 26.3,40.2 26.5,41.5C26,40.2 25.1,39.2 24,38.5C22.9,37.8 21.6,37.3 20.3,36.9C17.7,36 15,35.3 12.4,34.1C9.8,32.9 7.4,31.3 5.6,29.1C3.8,26.8 2.6,24.2 2,21.5" style="fill:#1D619E;fill-rule:nonzero;"/>
                    </g>
                    <g transform="matrix(12.5,0,0,12.5,0,0)">
                        <path d="M38.1,33.9C36.5,34.6 34.6,34.9 32.8,34.1C31,33.3 30,31.5 29.3,29.9C27.9,26.5 27.4,23 26.7,19.6C26,16.2 25.2,12.8 23.7,9.8C22.2,6.8 19.7,4.1 16.4,2.9C18.1,3.3 19.8,4.1 21.2,5.2C22.6,6.3 23.8,7.8 24.7,9.3C26.5,12.4 27.4,16 28.2,19.4L29.2,24.6C29.5,26.3 29.9,28 30.5,29.6C31.1,31.2 31.8,32.7 33.2,33.6C34.5,34.4 36.4,34.3 38.1,33.9" style="fill:#1D619E;fill-rule:nonzero;"/>
                    </g>
                    <g transform="matrix(12.5,0,0,12.5,0,0)">
                        <path d="M33.6,5.7C34.5,6.3 35.2,7.2 35.7,8.2C36.2,9.2 36.7,10.2 37,11.3C37.7,13.4 38,15.6 38.1,17.9C38.3,22.3 37.2,27 34.7,30.8C33.4,32.7 31.8,34.3 29.9,35.6C28,36.9 25.9,37.8 23.7,38.3C19.4,39.4 14.8,39.3 10.5,38.6C14.9,38.7 19.3,38.5 23.3,37.2C27.4,35.9 31,33.5 33.3,30C35.7,26.5 36.7,22.2 36.8,18C36.8,15.9 36.6,13.7 36.2,11.6C35.8,9.4 35.2,7.2 33.6,5.7" style="fill:#1D619E;fill-rule:nonzero;"/>
                    </g>
                </g>
                <g transform="matrix(0.765985,-0.275618,-0.275571,-0.766111,3.78121,570.394)">
                    <path d="M685.885,442.001C678.331,425.369 668.605,409.565 656.957,394.982C652.707,383.614 647.247,372.505 640.536,361.825C587.1,276.786 474.838,251.169 389.782,304.607C380.247,310.598 371.459,317.329 363.448,324.678C346.52,332.343 330.738,341.938 316.495,353.221C368.868,268.487 477.437,234.189 570.22,276.911C615.291,297.664 648.921,333.082 668.16,374.874C677.877,395.976 683.918,418.704 685.885,442.001Z" style="fill:#F9A22F;"/>
                </g>
            </g>
        </g>
        <g transform="matrix(0.27156,-0.767545,-0.767418,-0.271603,490.942,879.124)">
            <path d="M788.179,99.816C823.368,99.816 832.85,151.798 832.85,193.174C832.85,234.551 793.726,304.443 774.508,304.443C755.29,304.443 788.179,243.344 788.179,201.967C788.179,160.591 763.467,102.281 788.179,99.816Z" style="fill:#E3F0F8;"/>
        </g>
        <g transform="matrix(0.793265,0.182798,0.13726,-0.595841,-45.547,192.136)">
            <ellipse cx="773.5" cy="95.096" rx="29.5" ry="24.096" style="fill:#E3F0F8;"/>
        </g>
        <g transform="matrix(0.716291,-0.149019,-0.120272,-0.578308,-34.5083,378.548)">
            <ellipse cx="858.814" cy="595.429" rx="14.814" ry="36.429" style="fill:#E3F0F8;"/>
        </g>
        <g transform="matrix(0.765986,-0.275619,-0.275572,-0.766112,3.70126,570.507)">
            <path d="M860.314,590C874.008,590 865,606.621 865,622.075C865,637.528 847.934,648 838,648C828.066,648 779.568,582.359 793,590C882.431,640.872 800.561,590 860.314,590Z" style="fill:#E3F0F8;"/>
        </g>
        <g transform="matrix(0.813428,0.0317667,0.0317631,-0.813563,-140.733,542.201)">
            <ellipse cx="150.978" cy="440.79" rx="15.907" ry="7.21" style="fill:#E3F0F8;"/>
        </g>
        <g transform="matrix(0.954295,-0.343376,-0.294667,-0.819198,-134.634,644.66)">
            <ellipse cx="777" cy="444.599" rx="31" ry="38.014" style="fill:#E3F0F8;"/>
        </g>
        <g transform="matrix(1.34207,-0.129645,-0.107607,-1.11433,-527.848,613.466)">
            <ellipse cx="785.478" cy="443.962" rx="22.478" ry="27.962" style="fill:#89D7ED;"/>
        </g>
        <g transform="matrix(1.17119,0.319933,0.354415,-1.29784,-597.03,329.98)">
            <ellipse cx="792.141" cy="430.617" rx="14.859" ry="16.617" style="fill:#E3F0F8;"/>
        </g>
        <g transform="matrix(0.621708,0.0767115,0.0996734,-0.808057,31.9167,476.382)">
            <ellipse cx="296.5" cy="41" rx="11.5" ry="26" style="fill:#E3F0F8;"/>
        </g>
        <g transform="matrix(0.657014,-0.480712,-0.480632,-0.657122,88.1322,685.454)">
            <ellipse cx="603.5" cy="54" rx="9.5" ry="13" style="fill:#E3F0F8;"/>
        </g>
        <g transform="matrix(0.765986,-0.275619,-0.275572,-0.766112,3.70126,570.507)">
            <ellipse cx="592.5" cy="60.621" rx="5.5" ry="6.379" style="fill:#E3F0F8;"/>
        </g>
        <g transform="matrix(0.531719,0.1988,0.208301,-0.557313,-210.115,73.4557)">
            <ellipse cx="666.436" cy="785" rx="11.564" ry="13" style="fill:#E3F0F8;"/>
        </g>
        <g transform="matrix(0.806757,0.108726,0.108709,-0.806891,-308.089,333.569)">
            <path d="M643.206,725.156C647.586,725.156 646.936,747.5 646.936,755.502C646.936,763.505 651.317,776.381 646.936,776.381C642.556,776.381 635.416,766.894 635.416,758.891C635.416,750.888 638.825,725.156 643.206,725.156Z" style="fill:#E3F0F8;"/>
        </g>
    </g>
</svg>
