<?xml version="1.0" encoding="UTF-8" standalone="no"?>
<!DOCTYPE svg PUBLIC "-//W3C//DTD SVG 1.1//EN" "http://www.w3.org/Graphics/SVG/1.1/DTD/svg11.dtd">
<svg width="100%" height="100%" viewBox="0 0 1104 512" version="1.1" xmlns="http://www.w3.org/2000/svg" xmlns:xlink="http://www.w3.org/1999/xlink" xml:space="preserve" xmlns:serif="http://www.serif.com/" style="fill-rule:evenodd;clip-rule:evenodd;stroke-linejoin:round;stroke-miterlimit:2;">
    <g transform="matrix(1.07812,0,0,0.5,0,0)"><g transform="matrix(1.74065,0,0,3.75328,-424.724,-1229.93)"><g xmlns="http://www.w3.org/2000/svg" transform="matrix(0.227349,0,0,0.227349,665.545,458.141)">
                <g transform="matrix(1.01121,0,0,1.00634,167.205,108.734)">
                    <path d="M163.154,105.924C173.979,100.005 187.882,90.936 201.347,77.935C229.664,50.595 254.558,11.983 254.806,11.596C255.905,9.881 258.187,9.385 259.901,10.484C261.288,11.373 261.879,13.037 261.462,14.545C261.3,15.134 261.377,15.743 261.645,16.254C261.727,16.41 261.827,16.557 261.943,16.692C262.126,16.905 262.351,17.088 262.611,17.226L399.632,90.082C400.542,90.566 401.66,90.389 402.377,89.647C403.753,88.226 406.017,88.144 407.496,89.478C408.999,90.835 409.118,93.154 407.762,94.657L341.665,167.885C341.169,168.434 340.963,169.189 341.111,169.916C341.259,170.643 341.743,171.255 342.414,171.565L349.571,174.868C350.565,175.327 351.304,176.205 351.585,177.263C351.865,178.317 351.659,179.441 351.025,180.329L311.294,235.952C310.838,236.59 310.733,237.415 311.014,238.148L340.881,315.962C341.114,316.567 341.587,317.048 342.187,317.288C348.121,319.657 360.652,323.242 398.059,329.62C413.457,332.245 424.723,336.388 433.481,342.751C444.686,350.89 451.098,362.606 452.596,377.542C452.609,377.664 452.615,377.786 452.615,377.908C452.615,384.051 451.26,389.889 448.844,395.173C448.636,395.629 448.58,396.141 448.684,396.631C450.843,406.79 449.096,415.66 443.367,422.987C432.292,437.151 408.108,444.013 371.67,444.013L371.649,444.013L256.959,445.033L256.93,445.033L256.706,445.025L256.691,445.024C244.728,444.26 232.955,441.655 221.857,437.402C217.497,435.732 213.241,433.806 209.119,431.639C208.991,427.151 208.836,422.665 208.651,418.182C204.66,415.631 200.84,412.818 197.229,409.757L197.058,409.617L102.625,335.311C94.895,329.228 90.784,319.729 91.627,309.897C93.105,292.665 80.54,277.265 63.02,274.833C55.469,273.785 48.656,269.941 43.834,264.009L17.324,231.403C12.766,225.796 11.06,216.397 12.872,206.871C13.768,202.16 15.471,197.703 17.85,193.648C17.849,193.729 34.609,175.036 43.403,168.351C43.403,168.351 125.833,105.197 135.675,97.87C135.959,97.604 136.275,97.372 136.622,97.183C137.406,96.756 138.399,96.508 139.545,96.841C140.409,97.093 140.718,97.849 140.63,98.653C140.323,101.45 140.133,104.243 140.057,107.027C140.01,108.733 140.973,118.053 152.477,116.955C152.66,116.881 152.846,116.806 153.035,116.729C152.484,115.08 151.93,113.433 151.371,111.787C151.391,111.779 151.411,111.77 151.431,111.762C154.626,110.33 158.62,108.403 163.154,105.924ZM146.663,98.199C147.714,99.767 148.361,101.581 148.523,103.501C147.908,101.732 147.287,99.964 146.663,98.199ZM15.856,248.901L9.603,241.248C9.353,240.942 9.11,240.63 8.872,240.312L15.856,248.901ZM76.113,295.984C72.528,291.471 67.177,288.259 60.904,287.392C51.197,286.051 42.42,281.201 36.128,273.71C42.754,280.915 51.619,285.577 61.356,286.929C67.611,287.797 72.874,291.23 76.113,295.984Z" style="fill:#1b8c85;" />
                </g>
                <g transform="matrix(1,0,0,1,-0.00100144,-13.9083)">
                    <path d="M577.549,204.867C577.498,204.92 577.449,204.973 577.399,205.027L507.15,282.855L500.732,279.893C474.491,267.782 443.096,277.096 427.706,301.556L412.824,325.208L406.896,324.621C380.794,322.04 357.516,309.638 341.352,289.702C329.678,275.304 322.846,258.211 321.391,240.338C331.348,236.357 356.221,224.888 380.281,201.656C410.151,172.815 435.423,133.597 436.484,131.942C436.826,131.409 437.076,130.842 437.236,130.261L577.549,204.867Z" style="fill:#bc8051;" />
                    <path d="M535.044,251.867C534.993,251.92 577.449,204.973 577.399,205.027L507.15,282.855L500.732,279.893C474.491,267.782 443.096,277.096 427.706,301.556L412.824,325.208L406.896,324.621C380.794,322.04 357.516,309.638 341.352,289.702C329.678,275.304 322.846,258.211 321.391,240.338C331.348,236.357 356.221,224.888 380.281,201.656C410.151,172.815 394.861,186.874 395.021,186.294L535.044,251.867Z" style="fill:#e3f0f8;" />
                    <path d="M547.749,559.505L430.476,560.548C407.011,559.001 384.35,549.931 366.644,534.995C366.587,534.947 366.53,534.9 366.471,534.854L270.98,460.077C263.164,453.955 259.007,444.397 259.859,434.502C261.355,417.161 248.648,401.662 230.931,399.216C223.296,398.16 216.407,394.293 211.53,388.324L184.724,355.511C180.114,349.868 178.389,340.41 180.222,330.823C181.128,326.083 182.85,321.597 185.256,317.517C185.242,318.303 185.242,319.09 185.273,319.879C185.73,331.429 190.631,342.285 199.069,350.436L354.142,500.748C385.51,531.153 427.241,547.898 471.646,547.898L585.486,547.898C597.195,547.898 607.921,543.765 616.219,536.932C615.529,538.647 614.599,540.263 613.411,541.782C604.473,553.211 581.174,559.505 547.749,559.505Z" style="fill:#f9a22f;" />
                    <path d="M620.778,502.017C620.609,520.568 604.841,535.609 585.484,535.609L493.528,535.609C501.828,526.621 513.555,521.224 526.091,521.047L546.922,520.754C554.365,520.648 561.258,517.59 566.33,512.144C571.404,506.697 573.963,499.604 573.539,492.172C573.195,486.142 576.499,480.577 581.959,477.993L598.976,469.944C612.278,476.808 619.212,487.213 620.778,502.017Z" style="fill:#315263;" />
                    <path d="M515.787,449.545C521.925,451.787 532.283,454.573 554.634,458.738C547.219,463.225 538.901,466.388 529.762,468.164C524.685,469.147 519.842,467.24 516.809,463.054C513.86,458.988 513.495,453.969 515.787,449.545Z" style="fill:#315263;" />
                    <path d="M211.095,292.059L246.251,265.461C258.525,276.591 297.888,315.47 298.08,356.399C298.166,374.774 290.152,391.511 274.281,406.228L207.61,341.605C201.453,335.655 197.879,327.767 197.548,319.394C197.14,309.005 202.203,298.787 211.095,292.059Z" style="fill:#f55426;" />
                    <path d="M438.107,308.099C450.221,288.848 474.93,281.516 495.584,291.051L514.278,299.678L481.958,344.927C476.046,336.257 466.465,330.513 455.464,329.426L426.492,326.56L438.107,308.099Z" style="fill:#f55426;" />
                    <path d="M308.314,220.097C309.187,220.35 309.5,221.111 309.411,221.92C306.417,249.115 314.37,275.935 331.807,297.442C350.054,319.947 376.292,333.943 405.687,336.849L454.256,341.653C459.021,342.124 463.451,343.985 467.042,346.825C440.525,351.015 368.036,357.83 330.548,315.656C311.613,294.354 301.006,271.228 299.874,248.777C299.256,236.539 301.605,227.508 302.974,223.402C303.387,222.158 304.205,221.066 305.358,220.441C306.151,220.011 307.155,219.761 308.314,220.097Z" style="fill:#f9a22f;" />
                    <path d="M389.224,359.005C396.057,375.066 427.37,456.048 391.751,513.929C381.226,507.774 371.441,500.405 362.692,491.924L283.125,414.8C301.318,397.762 310.482,378.113 310.368,356.303C310.249,333.426 300.066,309.005 280.1,283.714C270.957,272.134 261.894,263.147 256.23,257.911L288.087,233.809C285.596,253.329 288.314,286.641 321.362,323.819C337.236,341.676 360.373,353.602 389.224,359.005Z" style="fill:#315263;" />
                    <path d="M582.73,464.035L576.704,466.886C566.696,471.62 560.638,481.82 561.27,492.872C561.501,496.928 560.105,500.798 557.337,503.771C554.571,506.743 550.81,508.41 546.749,508.469L525.919,508.761C506.404,509.035 488.404,519.23 478.09,535.611L471.644,535.611C447.622,535.611 423.909,530.032 402.616,519.728C419.835,491.256 424.959,453.961 417.412,411.317C413.588,389.71 407.453,371.665 403.346,361.074C408.879,361.673 414.586,362.066 420.469,362.231C422.763,362.295 425.024,362.325 427.247,362.325C448.715,362.324 466.522,359.54 474.835,357.977L505.244,443.192C500.417,451.861 501.037,462.237 506.86,470.268C511.698,476.943 519.19,480.705 527.173,480.705C528.802,480.705 530.453,480.549 532.105,480.227C547.197,477.296 560.423,471.081 571.468,461.74C572.034,461.838 572.584,461.933 573.162,462.031C576.547,462.608 579.728,463.279 582.73,464.035Z" style="fill:#f55426;" />
                    <g transform="matrix(1.02403,0,0,1.02403,167.205,114.729)">
                        <path d="M206.038,418.684C221.21,428.332 238.904,434.16 257.094,435.359L371.616,434.341C404.256,434.341 427.008,428.195 435.737,417.034C436.897,415.55 437.805,413.972 438.479,412.298C437.638,412.99 442.814,391.042 442.931,378.202C441.402,363.745 434.63,353.584 421.64,346.881C421.64,346.881 399.738,339.717 396.432,339.154C396.432,339.154 325.394,329.223 330.107,320.757L300.412,237.541C299.896,237.638 307.368,224.797 307.368,224.797L338.93,180.61L320.674,172.185L331.969,164.182L400.716,88.024L410.455,93.291L343.381,169.449L350.538,172.752C352.161,173.501 353.366,174.936 353.824,176.663C354.282,178.39 353.946,180.233 352.907,181.687L313.176,237.31L343.043,315.124C348.926,317.473 361.357,321.001 398.447,327.324C414.273,330.022 425.837,334.324 434.839,340.864C446.582,349.394 453.332,361.656 454.902,377.309C454.922,377.509 454.932,377.708 454.932,377.908C454.932,384.397 453.502,390.564 450.95,396.145C453.268,407.05 451.339,416.56 445.189,424.426C433.818,438.968 409.083,446.341 371.67,446.341L256.98,447.361L256.927,447.361C256.799,447.361 256.672,447.357 256.544,447.348C238.978,446.226 221.812,441.209 206.528,432.889C206.397,428.151 206.233,423.416 206.038,418.684ZM140.033,91.02C141.068,91.269 142.09,91.636 143.084,92.123C148.409,94.736 151.437,100.178 150.797,105.989C150.663,107.205 150.57,108.421 150.487,109.635C161.168,104.85 180.89,94.458 199.742,76.256C227.88,49.088 253.203,9.309 253.203,9.309L264.546,15.62C264.546,15.62 242.632,48.615 217.094,75.736C214.145,78.867 211.149,81.92 208.132,84.835L208.077,84.888C184.946,107.222 162.894,117.666 151.118,122.44C147.583,111.907 143.888,101.432 140.033,91.02Z" style="fill:#2f3143;fill-rule:nonzero;" />
                    </g>
                </g>
            </g>
        </g></g></svg>