<?xml version="1.0" encoding="utf-8"?>

<!DOCTYPE svg PUBLIC "-//W3C//DTD SVG 1.1//EN" "http://www.w3.org/Graphics/SVG/1.1/DTD/svg11.dtd">
<!-- Uploaded to: SVG Repo, www.svgrepo.com, Generator: SVG Repo Mixer Tools -->
<svg height="800px" width="800px" version="1.1" id="_x32_" xmlns="http://www.w3.org/2000/svg" xmlns:xlink="http://www.w3.org/1999/xlink" 
	 viewBox="0 0 512 512"  xml:space="preserve">
<style type="text/css">
	.st0{fill:#000000;}
</style>
<g>
	<path class="st0" d="M137.351,339.824c-22.831,0-41.341,18.51-41.341,41.341c0,22.832,18.51,41.319,41.341,41.319
		c22.824,0,41.312-18.488,41.312-41.319C178.663,358.333,160.175,339.824,137.351,339.824z M137.351,399.748
		c-10.289,0-18.606-8.324-18.606-18.584c0-10.289,8.317-18.606,18.606-18.606c10.259,0,18.584,8.317,18.584,18.606
		C155.935,391.424,147.61,399.748,137.351,399.748z"/>
<path class="st0" d="M409.63,339.824c-22.824,0-41.326,18.51-41.326,41.341c0,22.832,18.502,41.319,41.326,41.319
		c22.831,0,41.319-18.488,41.319-41.319C450.949,358.333,432.461,339.824,409.63,339.824z M409.63,399.748
		c-10.274,0-18.606-8.324-18.606-18.584c0-10.289,8.332-18.606,18.606-18.606c10.266,0,18.599,8.317,18.599,18.606
		C428.228,391.424,419.896,399.748,409.63,399.748z"/></g>
</svg>